<?xml version="1.0" standalone="no"?>
<svg xmlns="http://www.w3.org/2000/svg" xmlns:xlink="http://www.w3.org/1999/xlink" width="535pt" height="522pt" viewBox="0.00 0.00 534.73 521.63">
<g id="graph0" class="graph" transform="translate(53.85457976062568,440.934255451438) scale(0.7578582832551978)" data-name="G">

<polygon fill="white" stroke="none" points="-4,4 -4,-517.63 530.73,-517.63 530.73,4 -4,4"/>
<!-- 1 -->
<g id="node1" class="node" pointer-events="visible" data-name="1">

<ellipse fill="none" stroke="green" cx="27" cy="-138.64" rx="27" ry="18"/>
<text text-anchor="middle" x="27" y="-134.44" font-family="Handlee" font-size="14.00" fill="green">1</text>
</g>
<!-- 3 -->
<g id="node20" class="node" pointer-events="visible" data-name="3">

<ellipse fill="none" stroke="blue" cx="98.21" cy="-128" rx="27" ry="18"/>
<text text-anchor="middle" x="98.21" y="-123.8" font-family="Handlee" font-size="14.00" fill="blue">3</text>
</g>
<!-- 1&#45;&#45;3 -->
<g id="edge1" class="edge" data-name="1--3">

<path fill="none" stroke="black" d="M53.52,-134.68C59.37,-133.8 65.57,-132.88 71.43,-132"/>
</g>
<!-- 10 -->
<g id="node2" class="node" pointer-events="visible" data-name="10">

<ellipse fill="none" stroke="green" cx="76.56" cy="-332.84" rx="27" ry="18"/>
<text text-anchor="middle" x="76.56" y="-328.64" font-family="Handlee" font-size="14.00" fill="green">10</text>
</g>
<!-- 13 -->
<g id="node9" class="node" pointer-events="visible" data-name="13">

<ellipse fill="none" stroke="blue" cx="27" cy="-388.46" rx="27" ry="18"/>
<text text-anchor="middle" x="27" y="-384.26" font-family="Handlee" font-size="14.00" fill="blue">13</text>
</g>
<!-- 10&#45;&#45;13 -->
<g id="edge2" class="edge" data-name="10--13">

<path fill="none" stroke="black" d="M62.49,-348.62C55.74,-356.2 47.67,-365.26 40.93,-372.82"/>
</g>
<!-- 21 -->
<g id="node17" class="node" pointer-events="visible" data-name="21">

<ellipse fill="none" stroke="blue" cx="141.69" cy="-288.58" rx="27" ry="18"/>
<text text-anchor="middle" x="141.69" y="-284.38" font-family="Handlee" font-size="14.00" fill="blue">21</text>
</g>
<!-- 10&#45;&#45;21 -->
<g id="edge3" class="edge" data-name="10--21">

<path fill="none" stroke="black" d="M95.75,-319.8C104.15,-314.09 114,-307.4 122.41,-301.68"/>
</g>
<!-- 11 -->
<g id="node3" class="node" pointer-events="visible" data-name="11">

<ellipse fill="none" stroke="green" cx="358.96" cy="-438.21" rx="27" ry="18"/>
<text text-anchor="middle" x="358.96" y="-434.01" font-family="Handlee" font-size="14.00" fill="green">11</text>
</g>
<!-- 15 -->
<g id="node11" class="node" pointer-events="visible" data-name="15">

<ellipse fill="none" stroke="blue" cx="402.85" cy="-495.63" rx="27" ry="18"/>
<text text-anchor="middle" x="402.85" y="-491.43" font-family="Handlee" font-size="14.00" fill="blue">15</text>
</g>
<!-- 11&#45;&#45;15 -->
<g id="edge4" class="edge" data-name="11--15">

<path fill="none" stroke="black" d="M371.42,-454.51C377.4,-462.33 384.55,-471.68 390.51,-479.48"/>
</g>
<!-- 17 -->
<g id="node13" class="node" pointer-events="visible" data-name="17">

<ellipse fill="none" stroke="blue" cx="335" cy="-370" rx="27" ry="18"/>
<text text-anchor="middle" x="335" y="-365.8" font-family="Handlee" font-size="14.00" fill="blue">17</text>
</g>
<!-- 11&#45;&#45;17 -->
<g id="edge5" class="edge" data-name="11--17">

<path fill="none" stroke="black" d="M352.66,-420.29C349.11,-410.18 344.7,-397.61 341.17,-387.56"/>
</g>
<!-- 12 -->
<g id="node4" class="node" pointer-events="visible" data-name="12">

<ellipse fill="none" stroke="green" cx="159" cy="-402.64" rx="27" ry="18"/>
<text text-anchor="middle" x="159" y="-398.44" font-family="Handlee" font-size="14.00" fill="green">12</text>
</g>
<!-- 16 -->
<g id="node12" class="node" pointer-events="visible" data-name="16">

<ellipse fill="none" stroke="blue" cx="230.21" cy="-392" rx="27" ry="18"/>
<text text-anchor="middle" x="230.21" y="-387.8" font-family="Handlee" font-size="14.00" fill="blue">16</text>
</g>
<!-- 12&#45;&#45;16 -->
<g id="edge6" class="edge" data-name="12--16">

<path fill="none" stroke="black" d="M185.52,-398.68C191.37,-397.8 197.57,-396.88 203.43,-396"/>
</g>
<!-- 2 -->
<g id="node5" class="node" pointer-events="visible" data-name="2">

<ellipse fill="none" stroke="green" cx="214.26" cy="-239.15" rx="27" ry="18"/>
<text text-anchor="middle" x="214.26" y="-234.95" font-family="Handlee" font-size="14.00" fill="green">2</text>
</g>
<!-- 19 -->
<g id="node15" class="node" pointer-events="visible" data-name="19">

<ellipse fill="none" stroke="blue" cx="137.99" cy="-210.53" rx="27" ry="18"/>
<text text-anchor="middle" x="137.99" y="-206.33" font-family="Handlee" font-size="14.00" fill="blue">19</text>
</g>
<!-- 2&#45;&#45;19 -->
<g id="edge7" class="edge" data-name="2--19">

<path fill="none" stroke="black" d="M190.55,-230.25C181.45,-226.84 171.07,-222.94 161.96,-219.52"/>
</g>
<!-- 20 -->
<g id="node16" class="node" pointer-events="visible" data-name="20">

<ellipse fill="none" stroke="blue" cx="298.95" cy="-246.38" rx="27" ry="18"/>
<text text-anchor="middle" x="298.95" y="-242.18" font-family="Handlee" font-size="14.00" fill="blue">20</text>
</g>
<!-- 2&#45;&#45;20 -->
<g id="edge8" class="edge" data-name="2--20">

<path fill="none" stroke="black" d="M241.53,-241.48C251.2,-242.3 262.07,-243.23 271.74,-244.06"/>
</g>
<!-- 2&#45;&#45;21 -->
<g id="edge9" class="edge" data-name="2--21">

<path fill="none" stroke="black" d="M195.19,-252.14C184.61,-259.34 171.48,-268.29 160.88,-275.51"/>
</g>
<!-- 22 -->
<g id="node18" class="node" pointer-events="visible" data-name="22">

<ellipse fill="none" stroke="blue" cx="257.08" cy="-166.16" rx="27" ry="18"/>
<text text-anchor="middle" x="257.08" y="-161.96" font-family="Handlee" font-size="14.00" fill="blue">22</text>
</g>
<!-- 2&#45;&#45;22 -->
<g id="edge10" class="edge" data-name="2--22">

<path fill="none" stroke="black" d="M224.19,-222.22C231.06,-210.51 240.17,-194.99 247.05,-183.25"/>
</g>
<!-- 23 -->
<g id="node19" class="node" pointer-events="visible" data-name="23">

<ellipse fill="none" stroke="blue" cx="200.57" cy="-154.61" rx="27" ry="18"/>
<text text-anchor="middle" x="200.57" y="-150.41" font-family="Handlee" font-size="14.00" fill="blue">23</text>
</g>
<!-- 2&#45;&#45;23 -->
<g id="edge11" class="edge" data-name="2--23">

<path fill="none" stroke="black" d="M211.29,-220.8C208.99,-206.62 205.83,-187.09 203.53,-172.92"/>
</g>
<!-- 7 -->
<g id="node22" class="node" pointer-events="visible" data-name="7">

<ellipse fill="none" stroke="blue" cx="220.87" cy="-317.73" rx="27" ry="18"/>
<text text-anchor="middle" x="220.87" y="-313.53" font-family="Handlee" font-size="14.00" fill="blue">7</text>
</g>
<!-- 2&#45;&#45;7 -->
<g id="edge12" class="edge" data-name="2--7">

<path fill="none" stroke="black" d="M215.79,-257.37C216.85,-269.98 218.26,-286.69 219.32,-299.33"/>
</g>
<!-- 8 -->
<g id="node23" class="node" pointer-events="visible" data-name="8">

<ellipse fill="none" stroke="blue" cx="276.29" cy="-298.92" rx="27" ry="18"/>
<text text-anchor="middle" x="276.29" y="-294.72" font-family="Handlee" font-size="14.00" fill="blue">8</text>
</g>
<!-- 2&#45;&#45;8 -->
<g id="edge13" class="edge" data-name="2--8">

<path fill="none" stroke="black" d="M229.91,-254.23C239.39,-263.36 251.42,-274.96 260.86,-284.05"/>
</g>
<!-- 4 -->
<g id="node6" class="node" pointer-events="visible" data-name="4">

<ellipse fill="none" stroke="green" cx="357" cy="-115.71" rx="27" ry="18"/>
<text text-anchor="middle" x="357" y="-111.51" font-family="Handlee" font-size="14.00" fill="green">4</text>
</g>
<!-- 5 -->
<g id="node21" class="node" pointer-events="visible" data-name="5">

<ellipse fill="none" stroke="blue" cx="428.6" cy="-106" rx="27" ry="18"/>
<text text-anchor="middle" x="428.6" y="-101.8" font-family="Handlee" font-size="14.00" fill="blue">5</text>
</g>
<!-- 4&#45;&#45;5 -->
<g id="edge14" class="edge" data-name="4--5">

<path fill="none" stroke="black" d="M383.66,-112.1C389.54,-111.3 395.78,-110.45 401.68,-109.65"/>
</g>
<!-- 6 -->
<g id="node7" class="node" pointer-events="visible" data-name="6">

<ellipse fill="none" stroke="green" cx="499.73" cy="-118.62" rx="27" ry="18"/>
<text text-anchor="middle" x="499.73" y="-114.42" font-family="Handlee" font-size="14.00" fill="green">6</text>
</g>
<!-- 6&#45;&#45;5 -->
<g id="edge15" class="edge" data-name="6--5">

<path fill="none" stroke="black" d="M473.24,-113.92C467.24,-112.85 460.87,-111.72 454.87,-110.66"/>
</g>
<!-- 9 -->
<g id="node8" class="node" pointer-events="visible" data-name="9">

<ellipse fill="none" stroke="green" cx="242.96" cy="-86.46" rx="27" ry="18"/>
<text text-anchor="middle" x="242.96" y="-82.26" font-family="Handlee" font-size="14.00" fill="green">9</text>
</g>
<!-- 14 -->
<g id="node10" class="node" pointer-events="visible" data-name="14">

<ellipse fill="none" stroke="blue" cx="309.87" cy="-41.09" rx="27" ry="18"/>
<text text-anchor="middle" x="309.87" y="-36.89" font-family="Handlee" font-size="14.00" fill="blue">14</text>
</g>
<!-- 9&#45;&#45;14 -->
<g id="edge16" class="edge" data-name="9--14">

<path fill="none" stroke="black" d="M262.31,-73.33C271.27,-67.26 281.87,-60.07 290.79,-54.02"/>
</g>
<!-- 18 -->
<g id="node14" class="node" pointer-events="visible" data-name="18">

<ellipse fill="none" stroke="blue" cx="199.38" cy="-18" rx="27" ry="18"/>
<text text-anchor="middle" x="199.38" y="-13.8" font-family="Handlee" font-size="14.00" fill="blue">18</text>
</g>
<!-- 9&#45;&#45;18 -->
<g id="edge17" class="edge" data-name="9--18">

<path fill="none" stroke="black" d="M232.18,-69.53C225.43,-58.92 216.76,-45.3 210.03,-34.73"/>
</g>
<!-- 9&#45;&#45;22 -->
<g id="edge18" class="edge" data-name="9--22">

<path fill="none" stroke="black" d="M246.16,-104.54C248.46,-117.49 251.54,-134.87 253.84,-147.87"/>
</g>
<!-- 9&#45;&#45;23 -->
<g id="edge19" class="edge" data-name="9--23">

<path fill="none" stroke="black" d="M232.48,-103.3C225.91,-113.87 217.47,-127.43 210.93,-137.96"/>
</g>
</g>
</svg>