<?xml version="1.0" encoding="UTF-8"?>
<!-- Generated by Pixelmator Pro 3.3.8 -->
<svg width="768" height="768" viewBox="0 0 768 768" xmlns="http://www.w3.org/2000/svg">
    <linearGradient id="linearGradient1" x1="278.486404" y1="507.741858" x2="278.356655" y2="98.753597" gradientUnits="userSpaceOnUse">
        <stop offset="0" stop-color="#0495a0" stop-opacity="1"/>
        <stop offset="1" stop-color="#05b6be" stop-opacity="1"/>
    </linearGradient>
    <path id="Triangle1" fill="url(#linearGradient1)" fill-rule="evenodd" stroke="none" d="M 30.855 98.97998 L 276.005005 507.910004 L 521.14502 98.97998 L 30.855 98.97998 Z"/>
    <linearGradient id="linearGradient2" x1="529.964726" y1="301.158522" x2="529.901859" y2="103.000301" gradientUnits="userSpaceOnUse">
        <stop offset="0" stop-color="#0495a0" stop-opacity="1"/>
        <stop offset="1" stop-color="#05b6be" stop-opacity="1"/>
    </linearGradient>
    <path id="Triangle2" fill="url(#linearGradient2)" fill-rule="evenodd" stroke="none" d="M 528.76001 103.109985 L 409.980011 301.23999 L 647.539978 301.23999 L 528.76001 103.109985 Z"/>
    <linearGradient id="linearGradient3" x1="529.964726" y1="507.828536" x2="529.901859" y2="309.670314" gradientUnits="userSpaceOnUse">
        <stop offset="0" stop-color="#0495a0" stop-opacity="1"/>
        <stop offset="1" stop-color="#05b6be" stop-opacity="1"/>
    </linearGradient>
    <path id="Triangle3" fill="url(#linearGradient3)" fill-rule="evenodd" stroke="none" d="M 409.980011 309.779999 L 528.76001 507.910004 L 647.539978 309.779999 L 409.980011 309.779999 Z"/>
    <linearGradient id="linearGradient4" x1="655.769703" y1="297.079879" x2="655.740236" y2="204.328665" gradientUnits="userSpaceOnUse">
        <stop offset="0" stop-color="#0495a0" stop-opacity="1"/>
        <stop offset="1" stop-color="#05b6be" stop-opacity="1"/>
    </linearGradient>
    <path id="Triangle4" fill="url(#linearGradient4)" fill-rule="evenodd" stroke="none" d="M 599.530029 204.380005 L 655.125977 297.118011 L 710.880005 204.380005 L 599.530029 204.380005 Z"/>
    <linearGradient id="linearGradient5" x1="655.764749" y1="195.803846" x2="655.735279" y2="103.048634" gradientUnits="userSpaceOnUse">
        <stop offset="0" stop-color="#0495a0" stop-opacity="1"/>
        <stop offset="1" stop-color="#05b6be" stop-opacity="1"/>
    </linearGradient>
    <path id="Triangle5" fill="url(#linearGradient5)" fill-rule="evenodd" stroke="none" d="M 655.119995 103.099976 L 599.52002 195.84198 L 710.880005 195.84198 L 655.124023 103.099976 Z"/>
    <linearGradient id="linearGradient6" x1="28.864" y1="603.162819" x2="735.400024" y2="603.162819" gradientUnits="userSpaceOnUse">
        <stop offset="0" stop-color="#dd52e5" stop-opacity="1"/>
        <stop offset="1" stop-color="#81b5f9" stop-opacity="1"/>
    </linearGradient>
    <path id="WebGPU" fill="url(#linearGradient6)" fill-rule="evenodd" stroke="none" d="M 168.626999 547.468994 L 142.927002 646.411987 L 116.050003 547.468994 L 98.913002 547.468994 L 70.692001 646.747986 L 45.158001 547.468994 L 28.864 547.468994 L 61.620998 664.721985 L 78.586998 664.554016 L 106.807999 570.315002 L 134.022003 664.554016 L 151.156006 664.554016 L 185.089005 547.468994 L 168.626999 547.468994 Z M 285.878998 615 C 286.00705 607.127319 284.128357 599.351746 280.420013 592.406006 C 276.836517 585.801575 271.446747 580.353882 264.881012 576.700012 C 257.787598 572.798828 249.793839 570.829407 241.699997 570.989014 C 233.40744 570.825378 225.215225 572.82428 217.929993 576.789001 C 211.078094 580.615601 205.499908 586.369019 201.886993 593.335999 C 198.079 600.504008 196.175334 608.847005 196.175995 618.36499 C 196.176666 627.883016 198.136332 636.254354 202.054993 643.479004 C 205.757538 650.479858 211.381531 656.27832 218.266006 660.192993 C 225.422913 664.183228 233.507065 666.211731 241.699997 666.072998 C 252.674006 666.072998 261.857005 663.301331 269.248993 657.757996 C 276.480988 652.44635 281.693573 644.834961 284.032013 636.171997 L 267.569 636.171997 C 265.87915 641.187988 262.607758 645.520508 258.246002 648.518982 C 253.82133 651.59967 248.305995 653.139343 241.699997 653.138 C 234.11499 653.31781 226.749771 650.582397 221.121002 645.494995 C 215.464996 640.399658 212.35733 633.316325 211.798004 624.244995 L 285.376007 624.244995 C 285.700623 621.175903 285.867493 618.092163 285.876007 615.005981 L 285.876007 615.005981 Z M 270.088989 611.807983 L 211.966003 611.807983 C 212.748667 603.074666 215.856333 596.243347 221.289001 591.314026 C 226.673416 586.403687 233.742706 583.756653 241.028 583.922974 C 246.115891 583.857788 251.148987 584.979126 255.727997 587.197998 C 260.075958 589.313538 263.721588 592.638 266.227997 596.77301 C 268.896667 601.324707 270.235352 606.53363 270.09201 611.807983 L 270.09201 611.807983 Z M 321.322998 589.633972 L 321.322998 540.245972 L 306.036987 540.245972 L 306.036987 664.554016 L 321.322998 664.554016 L 321.322998 647.588013 C 324.54126 653.157837 329.21637 657.745483 334.846008 660.857971 C 341.227112 664.430603 348.448669 666.228943 355.76001 666.065979 C 371.774628 666.285645 386.512024 657.35199 393.725006 643.052002 C 397.630157 635.355286 399.590942 626.819336 399.436005 618.190002 C 399.436005 608.782654 397.532338 600.523661 393.725006 593.413025 C 390.153564 586.553894 384.743286 580.824402 378.100006 576.866028 C 371.329132 572.903198 363.602417 570.869995 355.757996 570.987 C 348.530853 570.860291 341.399963 572.657349 335.096008 576.19397 C 329.374481 579.346863 324.614136 583.991089 321.321014 589.632996 L 321.321014 589.632996 Z M 383.813995 618.190979 C 383.969391 624.576904 382.525635 630.90033 379.614014 636.585999 C 377.040527 641.555542 373.108215 645.691772 368.274994 648.513 C 363.500122 651.261169 358.076996 652.682007 352.567993 652.627991 C 347.114227 652.667664 341.749237 651.246826 337.029999 648.513 C 332.184174 645.680908 328.227386 641.5495 325.606995 636.585999 C 319.894806 625.165405 319.894806 611.721558 325.606995 600.301025 C 328.22821 595.338074 332.184814 591.206909 337.029999 588.374023 C 341.749603 585.641052 347.114349 584.220276 352.567993 584.258972 C 358.066345 584.203857 363.482727 585.593933 368.274994 588.289978 C 373.099884 591.046631 377.034576 595.127075 379.614014 600.049011 C 382.519196 605.64624 383.963867 611.886475 383.813995 618.190979 L 383.813995 618.190979 Z M 526.599976 581.400024 C 522.624878 570.689087 515.287354 561.553833 505.686005 555.362 C 496.110667 549.204651 485.108002 546.12498 472.678009 546.122986 C 462.266449 546.006897 452.009003 548.643555 442.944 553.765991 C 434.044708 558.80249 426.695343 566.180908 421.694 575.099976 C 411.279327 594.301025 411.279327 617.466003 421.694 636.666992 C 426.713287 645.550842 434.06015 652.897705 442.944 657.916992 C 452.008453 663.040894 462.266266 665.677612 472.678009 665.559998 C 482.47287 665.687378 492.13504 663.286377 500.730988 658.588989 C 508.993835 654.069885 515.984436 647.541138 521.057007 639.606018 C 526.188232 631.656372 529.302002 622.574707 530.127991 613.148987 L 530.127991 601.392029 L 467.132996 601.392029 L 467.132996 613.822998 L 513.833008 613.822998 C 512.598999 625.474325 508.287994 634.713318 500.899994 641.539978 C 493.511993 648.366679 484.104991 651.782349 472.678986 651.786987 C 464.946838 651.901855 457.322998 649.959961 450.588013 646.159973 C 444.016968 642.389343 438.656342 636.824402 435.134003 630.117004 C 431.381337 623.174988 429.505666 615.111979 429.506989 605.927979 C 429.508331 596.743978 431.384003 588.652649 435.134003 581.653992 C 438.639221 574.912598 444.002045 569.316223 450.588013 565.526978 C 457.323364 561.727966 464.94693 559.786072 472.678986 559.900024 C 480.230042 559.735168 487.676849 561.684143 494.178986 565.526978 C 500.354095 569.299622 505.266083 574.825317 508.289001 581.400024 L 526.599976 581.400024 Z M 628.567017 581.736023 C 628.567017 571.656677 625.123352 563.425334 618.236023 557.041992 C 611.348694 550.658651 601.297689 547.46698 588.083008 547.46698 L 550.28302 547.46698 L 550.28302 664.554016 L 565.570007 664.554016 L 565.570007 615.671021 L 588.080017 615.671021 C 601.742004 615.671021 611.904989 612.451355 618.56897 606.012024 C 625.232992 599.572693 628.566325 591.481344 628.56897 581.737976 L 628.56897 581.737976 Z M 588.083008 603.070007 L 565.572998 603.070007 L 565.572998 560.070007 L 588.083008 560.070007 C 604.654989 560.070007 612.941976 567.293335 612.94397 581.73999 C 612.94397 588.571981 610.928304 593.835327 606.896973 597.530029 C 602.865641 601.224691 596.59432 603.072673 588.083008 603.073975 L 588.083008 603.073975 Z M 647.211975 547.469971 L 647.211975 621.382996 C 647.211975 631.126322 649.145325 639.329651 653.012024 645.992981 C 656.641724 652.438232 662.149841 657.624023 668.802002 660.859009 C 683.047058 667.35498 699.408936 667.35498 713.653992 660.859009 C 720.318542 657.610413 725.850342 652.430176 729.528992 645.992981 C 733.443014 639.330994 735.400024 631.12734 735.400024 621.382019 L 735.400024 547.468994 L 720.117004 547.468994 L 720.117004 621.549988 C 720.117004 631.965312 717.56901 639.692647 712.473022 644.731995 C 707.376994 649.771342 700.34965 652.291016 691.390991 652.291016 C 682.320313 652.291016 675.236979 649.771342 670.140991 644.731995 C 665.045003 639.692647 662.498006 631.965312 662.5 621.549988 L 662.5 547.468994 L 647.210999 547.468994 Z"/>
</svg>
